# xmcd CD database file
#
# Track frame offsets:
#	150
#	18544
#	33723
#	53317
#	63987
#	88096
#	104659
#	120893
#	140901
#	156311
#	177432
#	198441
#	237578
#	260340
#	278180
#
# Disc length: 3910 seconds
#
# Revision: 1
# Processed by: cddbd v1.5.1PL2 Copyright (c) Steve Scherf et al.
# Submitted via: jetAudio 5
#
DISCID=da0f440f
DTITLE=Bernie Clarke and the Rythm Sharks - Love Recession
DYEAR=1900
DGENRE=
TTITLE0=It Takes Time
TTITLE1=Love Recession
TTITLE2=Sweet Baby
TTITLE3=Marie's The Name (His Latest Flame)
TTITLE4=Good Luck, Bad Luck
TTITLE5=Telephone Boogie
TTITLE6=Teach Me How To Love You
TTITLE7=Pouring Water On A Drowning Man
TTITLE8=(If You Don't Need Me) I'll Be Fine
TTITLE9=Farmer John
TTITLE10=For You My Love
TTITLE11=Early In The Morning
TTITLE12=Married Man
TTITLE13=I Can See Clearly
TTITLE14=Georgia Slop
EXTD=
EXTT0=
EXTT1=
EXTT2=
EXTT3=
EXTT4=
EXTT5=
EXTT6=
EXTT7=
EXTT8=
EXTT9=
EXTT10=
EXTT11=
EXTT12=
EXTT13=
EXTT14=
PLAYORDER=
